<svg width="27" height="27" viewBox="0 0 27 27" fill="none" xmlns="http://www.w3.org/2000/svg">
<path d="M15.2336 1.00148C16.1092 0.998116 16.9849 1.00692 17.8603 1.02788L18.0931 1.03628C18.3619 1.04587 18.627 1.05787 18.9474 1.07227C20.2242 1.13227 21.0953 1.33387 21.8597 1.63026C22.6516 1.93504 23.3188 2.34783 23.986 3.01501C24.596 3.61451 25.0681 4.3397 25.3695 5.14014C25.6659 5.90451 25.8675 6.77688 25.9275 8.05364C25.9419 8.37283 25.9539 8.63922 25.9635 8.90801L25.9707 9.1408C25.992 10.0158 26.0012 10.8911 25.9983 11.7663L25.9995 12.6615V14.2334C26.0024 15.1091 25.9932 15.9847 25.9719 16.8601L25.9647 17.0929C25.9551 17.3617 25.9431 17.6269 25.9287 17.9473C25.8687 19.2241 25.6647 20.0952 25.3695 20.8596C25.0691 21.6609 24.5968 22.3867 23.986 22.9859C23.386 23.5959 22.6604 24.068 21.8597 24.3695C21.0953 24.6659 20.2242 24.8675 18.9474 24.9275C18.627 24.9419 18.3619 24.9539 18.0931 24.9635L17.8603 24.9707C16.9849 24.992 16.1093 25.0012 15.2336 24.9983L14.3385 24.9995H12.7677C11.8921 25.0024 11.0165 24.9932 10.1411 24.9719L9.90829 24.9647C9.62343 24.9543 9.33864 24.9423 9.05393 24.9287C7.7772 24.8687 6.90604 24.6647 6.14048 24.3695C5.33974 24.0687 4.61444 23.5965 4.01539 22.9859C3.40467 22.3863 2.93211 21.6606 2.63066 20.8596C2.33428 20.0952 2.13269 19.2241 2.07269 17.9473C2.05932 17.6626 2.04733 17.3778 2.03669 17.0929L2.03069 16.8601C2.00857 15.9847 1.99857 15.1091 2.00069 14.2334V11.7663C1.99734 10.8911 2.00614 10.0158 2.02709 9.1408L2.03549 8.90801C2.04509 8.63922 2.05709 8.37283 2.07149 8.05364C2.13149 6.77568 2.33308 5.90571 2.62946 5.14014C2.93109 4.33931 3.40458 3.61432 4.01659 3.01621C4.61523 2.40513 5.34007 1.93213 6.14048 1.63026C6.90604 1.33387 7.776 1.13227 9.05393 1.07227L9.90829 1.03628L10.1411 1.03028C11.016 1.00816 11.8913 0.998163 12.7665 1.00028L15.2336 1.00148ZM14.0001 7.00127C13.2051 6.99003 12.4159 7.1369 11.6782 7.43334C10.9405 7.72978 10.269 8.16989 9.70291 8.72808C9.13678 9.28627 8.68723 9.95142 8.38039 10.6849C8.07355 11.4183 7.91554 12.2054 7.91554 13.0005C7.91554 13.7955 8.07355 14.5826 8.38039 15.3161C8.68723 16.0495 9.13678 16.7147 9.70291 17.2729C10.269 17.831 10.9405 18.2712 11.6782 18.5676C12.4159 18.864 13.2051 19.0109 14.0001 18.9997C15.5913 18.9997 17.1173 18.3675 18.2425 17.2424C19.3677 16.1172 19.9998 14.5911 19.9998 12.9999C19.9998 11.4086 19.3677 9.88255 18.2425 8.75737C17.1173 7.63219 15.5913 7.00127 14.0001 7.00127ZM14.0001 9.40119C14.4783 9.39238 14.9534 9.47894 15.3978 9.65583C15.8421 9.83272 16.2468 10.0964 16.5881 10.4314C16.9294 10.7664 17.2005 11.1661 17.3856 11.6071C17.5707 12.0481 17.6661 12.5216 17.6662 12.9999C17.6663 13.4781 17.5711 13.9516 17.3861 14.3927C17.2011 14.8337 16.9301 15.2335 16.5889 15.5687C16.2477 15.9038 15.8432 16.1676 15.3989 16.3446C14.9546 16.5217 14.4795 16.6084 14.0013 16.5997C13.0465 16.5997 12.1309 16.2205 11.4558 15.5454C10.7807 14.8703 10.4015 13.9546 10.4015 12.9999C10.4015 12.0451 10.7807 11.1295 11.4558 10.4544C12.1309 9.77926 13.0465 9.39999 14.0013 9.39999L14.0001 9.40119ZM20.2998 5.20133C19.9126 5.21683 19.5465 5.38151 19.2781 5.66088C19.0097 5.94026 18.8598 6.31266 18.8598 6.70008C18.8598 7.08751 19.0097 7.45991 19.2781 7.73928C19.5465 8.01866 19.9126 8.18334 20.2998 8.19883C20.6976 8.19883 21.0791 8.0408 21.3604 7.75951C21.6417 7.47821 21.7997 7.09669 21.7997 6.69888C21.7997 6.30107 21.6417 5.91955 21.3604 5.63826C21.0791 5.35696 20.6976 5.19893 20.2998 5.19893V5.20133Z" fill="white"/>
</svg>
